<svg xmlns="http://www.w3.org/2000/svg" width="56" height="56" viewBox="0 0 56 56" fill="none">
  <circle cx="28" cy="28" r="27.5" stroke="#807F01" stroke-dasharray="4 4"/>
  <path d="M26.0909 16C24.3272 16 22.8754 17.2104 22.3058 18.8605C22.2942 18.8604 22.2843 18.8571 22.2727 18.8571C20.023 18.8571 18.1818 20.786 18.1818 23.1429C18.1818 23.6001 18.266 24.0333 18.3938 24.4464C16.9939 25.1287 16 26.57 16 28.2857C16 30.6426 17.8412 32.5714 20.0909 32.5714C20.7323 32.5714 21.3187 32.3725 21.8604 32.0949C21.931 32.1698 22.0059 32.2401 22.0799 32.3114C22.139 32.4835 22.2491 32.6314 22.3942 32.7333C22.3942 32.7333 22.742 32.9856 23.19 33.2902C23.9096 33.7802 24.7273 34.4653 24.7273 35.7143C24.7273 36.1327 24.5938 36.8811 24.2862 37.4118C23.9787 37.9426 23.6121 38.2857 22.8182 38.2857C22.6032 38.2889 22.398 38.3806 22.2471 38.541C22.0961 38.7014 22.0115 38.9176 22.0115 39.1429C22.0115 39.3681 22.0961 39.5843 22.2471 39.7447C22.398 39.9051 22.6032 39.9968 22.8182 40H33.1818C33.3968 39.9968 33.602 39.9051 33.7529 39.7447C33.9039 39.5843 33.9885 39.3681 33.9885 39.1429C33.9885 38.9176 33.9039 38.7014 33.7529 38.541C33.602 38.3806 33.3968 38.2889 33.1818 38.2857C32.3879 38.2857 32.0213 37.9426 31.7138 37.4118C31.4062 36.8811 31.2727 36.1327 31.2727 35.7143C31.2727 34.4656 32.0895 33.7801 32.8089 33.2902C33.2565 32.9856 33.6058 32.7333 33.6058 32.7333C33.7453 32.6323 33.8514 32.4883 33.9094 32.3214C33.9871 32.2469 34.0656 32.1733 34.1396 32.0949C34.6813 32.3725 35.2677 32.5714 35.9091 32.5714C38.1588 32.5714 40 30.6426 40 28.2857C40 26.57 39.0061 25.1287 37.6062 24.4464C37.734 24.0333 37.8182 23.6001 37.8182 23.1429C37.8182 20.786 35.977 18.8571 33.7273 18.8571C33.7157 18.8571 33.7058 18.8604 33.6942 18.8605C33.1246 17.2104 31.6728 16 29.9091 16C29.2108 16 28.5754 16.2289 28 16.5536C27.4246 16.2289 26.7892 16 26.0909 16ZM26.0909 17.7143C26.628 17.7143 27.1155 17.8934 27.5217 18.1998C27.661 18.3049 27.8283 18.3615 28 18.3615C28.1717 18.3615 28.339 18.3049 28.4783 18.1998C28.8845 17.8934 29.372 17.7143 29.9091 17.7143C31.1475 17.7143 32.1541 18.6622 32.3317 19.8996C32.3479 20.013 32.3857 20.1219 32.4429 20.2198C32.5 20.3176 32.5753 20.4025 32.6643 20.4693C32.7533 20.5361 32.8542 20.5835 32.9611 20.6087C33.0679 20.634 33.1785 20.6364 33.2862 20.6161C33.4379 20.5875 33.5836 20.5714 33.7273 20.5714C35.0928 20.5714 36.1818 21.7123 36.1818 23.1429C36.1818 23.6319 36.0505 24.0812 35.8228 24.4743C35.7543 24.5927 35.7141 24.7268 35.7058 24.865C35.6975 25.0032 35.7213 25.1414 35.7751 25.2679C35.8289 25.3944 35.9112 25.5053 36.0148 25.5912C36.1185 25.6771 36.2405 25.7354 36.3704 25.7612C37.5045 25.9868 38.3636 27.0217 38.3636 28.2857C38.3636 29.7163 37.2746 30.8571 35.9091 30.8571C35.3821 30.8571 34.9023 30.6855 34.5018 30.3906C34.3262 30.2615 34.1093 30.2097 33.8977 30.2465C33.6861 30.2832 33.4968 30.4055 33.3704 30.5871C33.163 30.8851 32.9095 31.1437 32.6246 31.3583C32.6154 31.365 32.4984 31.4455 32.4627 31.471C31.9606 31.8034 31.3693 32 30.7273 32C29.8848 32 29.1289 31.6688 28.5465 31.1217C28.3964 30.9805 28.2017 30.9024 28 30.9024C27.7983 30.9024 27.6036 30.9805 27.4535 31.1217C26.8711 31.6688 26.1152 32 25.2727 32C24.6307 32 24.0394 31.8034 23.5373 31.471C23.5016 31.4454 23.3846 31.365 23.3754 31.3583C23.0905 31.1437 22.837 30.8851 22.6296 30.5871C22.5032 30.4055 22.3139 30.2832 22.1023 30.2465C21.8907 30.2097 21.6738 30.2615 21.4982 30.3906C21.0977 30.6855 20.6179 30.8571 20.0909 30.8571C18.7254 30.8571 17.6364 29.7163 17.6364 28.2857C17.6364 27.0217 18.4955 25.9868 19.6296 25.7612C19.7595 25.7354 19.8815 25.6771 19.9852 25.5912C20.0888 25.5053 20.1711 25.3944 20.2249 25.2679C20.2787 25.1414 20.3025 25.0032 20.2942 24.865C20.2859 24.7268 20.2457 24.5927 20.1772 24.4743C19.9495 24.0812 19.8182 23.6319 19.8182 23.1429C19.8182 21.7123 20.9072 20.5714 22.2727 20.5714C22.4164 20.5714 22.5622 20.5875 22.7138 20.6161C22.8215 20.6364 22.9321 20.634 23.0389 20.6087C23.1458 20.5835 23.2467 20.5361 23.3357 20.4693C23.4247 20.4025 23.5 20.3176 23.5571 20.2198C23.6143 20.1219 23.6521 20.013 23.6683 19.8996C23.8459 18.6622 24.8525 17.7143 26.0909 17.7143ZM28 32.7511C28.6432 33.2134 29.3718 33.5592 30.1754 33.6719C29.858 34.2331 29.6364 34.9063 29.6364 35.7143C29.6364 36.4343 29.7959 37.3926 30.3086 38.2857H25.6914C26.2041 37.3926 26.3636 36.4343 26.3636 35.7143C26.3636 34.9063 26.142 34.2331 25.8246 33.6719C26.6282 33.5592 27.3568 33.2134 28 32.7511Z" fill="#807F01"/>
</svg>