<svg width="98" height="24" viewBox="0 0 98 24" fill="none" xmlns="http://www.w3.org/2000/svg">
<g id="Logo" clip-path="url(#clip0_177_1276)">
<path id="Vector" d="M28.4667 16.8549H35.463V14.7476H30.9534V6.81006H28.4667V16.8549Z" fill="#2F234F"/>
<path id="Vector_2" d="M39.6081 15.4501C38.6107 15.4501 38.0909 14.5791 38.0909 13.2726C38.0909 11.966 38.6107 11.0809 39.6081 11.0809C40.6056 11.0809 41.1395 11.966 41.1395 13.2726C41.1395 14.5791 40.6056 15.4501 39.6081 15.4501ZM39.6222 17.0798C41.9402 17.0798 43.4575 15.4361 43.4575 13.2726C43.4575 11.109 41.9402 9.46533 39.6222 9.46533C37.3182 9.46533 35.7728 11.109 35.7728 13.2726C35.7728 15.4361 37.3182 17.0798 39.6222 17.0798Z" fill="#2F234F"/>
<path id="Vector_3" d="M47.4698 19.3415C48.5375 19.3415 49.4788 19.1027 50.111 18.5407C50.687 18.0209 51.0663 17.2342 51.0663 16.1524V9.6619H48.8747V10.4346H48.8466C48.4251 9.83049 47.7789 9.45117 46.8236 9.45117C45.0394 9.45117 43.8031 10.9403 43.8031 13.0477C43.8031 15.2533 45.3063 16.4615 46.9219 16.4615C47.793 16.4615 48.3409 16.1103 48.7623 15.6326H48.8185V16.3491C48.8185 17.2201 48.4111 17.7259 47.4417 17.7259C46.6831 17.7259 46.3038 17.4028 46.1773 17.0235H43.9576C44.1824 18.5267 45.489 19.3415 47.4698 19.3415ZM47.4558 14.7616C46.5988 14.7616 46.0369 14.0592 46.0369 12.9774C46.0369 11.8816 46.5988 11.1792 47.4558 11.1792C48.4111 11.1792 48.9169 11.994 48.9169 12.9634C48.9169 13.9749 48.4532 14.7616 47.4558 14.7616Z" fill="#2F234F"/>
<path id="Vector_4" d="M55.5727 15.4501C54.5752 15.4501 54.0554 14.5791 54.0554 13.2726C54.0554 11.966 54.5752 11.0809 55.5727 11.0809C56.5701 11.0809 57.104 11.966 57.104 13.2726C57.104 14.5791 56.5701 15.4501 55.5727 15.4501ZM55.5867 17.0798C57.9048 17.0798 59.4222 15.4361 59.4222 13.2726C59.4222 11.109 57.9048 9.46533 55.5867 9.46533C53.2827 9.46533 51.7374 11.109 51.7374 13.2726C51.7374 15.4361 53.2827 17.0798 55.5867 17.0798Z" fill="#2F234F"/>
<path id="Vector_5" d="M60.0907 16.8549H62.3807V9.66196H60.0907V16.8549ZM60.0907 8.6645H62.3807V6.81006H60.0907V8.6645Z" fill="#2F234F"/>
<path id="Vector_6" d="M63.374 19.2291H65.664V16.1103H65.6921C66.1416 16.7144 66.8019 17.0797 67.7291 17.0797C69.6117 17.0797 70.862 15.5905 70.862 13.2584C70.862 11.0949 69.696 9.45117 67.7853 9.45117C66.8019 9.45117 66.0995 9.88668 65.6078 10.5329H65.5656V9.6619H63.374V19.2291ZM67.1391 15.3095C66.1557 15.3095 65.5937 14.5087 65.5937 13.3427C65.5937 12.1766 66.0995 11.2916 67.097 11.2916C68.0804 11.2916 68.544 12.1064 68.544 13.3427C68.544 14.5649 68.0101 15.3095 67.1391 15.3095Z" fill="#2F234F"/>
<path id="Vector_7" d="M74.5908 17.0797C76.4733 17.0797 77.8642 16.2648 77.8642 14.6914C77.8642 12.851 76.375 12.5279 75.1106 12.3171C74.1974 12.1485 73.3826 12.0783 73.3826 11.5725C73.3826 11.123 73.8181 10.9122 74.3801 10.9122C75.0123 10.9122 75.4478 11.1089 75.5321 11.7552H77.6394C77.527 10.3362 76.4312 9.45117 74.3941 9.45117C72.6942 9.45117 71.2893 10.2379 71.2893 11.7552C71.2893 13.441 72.624 13.7782 73.8743 13.9889C74.8296 14.1575 75.7007 14.2278 75.7007 14.874C75.7007 15.3376 75.2651 15.5905 74.5768 15.5905C73.8181 15.5905 73.3405 15.2393 73.2562 14.5228H71.0927C71.1629 16.1103 72.4835 17.0797 74.5908 17.0797Z" fill="#2F234F"/>
<path id="Vector_8" d="M80.9742 17.0653C81.9717 17.0653 82.6039 16.672 83.1237 15.9695H83.1658V16.8546H85.3574V9.66162H83.0675V13.6796C83.0675 14.5365 82.5898 15.1266 81.8031 15.1266C81.0726 15.1266 80.7213 14.6911 80.7213 13.9044V9.66162H78.4454V14.382C78.4454 15.9836 79.3165 17.0653 80.9742 17.0653Z" fill="#2F234F"/>
<path id="Vector_9" d="M86.3538 16.8549H88.6437V12.8229C88.6437 11.9659 89.0652 11.3618 89.7817 11.3618C90.4701 11.3618 90.7932 11.8114 90.7932 12.5841V16.8549H93.0831V12.8229C93.0831 11.9659 93.4905 11.3618 94.2211 11.3618C94.9095 11.3618 95.2326 11.8114 95.2326 12.5841V16.8549H97.5225V12.1766C97.5225 10.561 96.7077 9.45117 95.0781 9.45117C94.1508 9.45117 93.3782 9.84454 92.8162 10.7156H92.7881C92.4228 9.94288 91.7064 9.45117 90.7651 9.45117C89.7255 9.45117 89.0371 9.94288 88.5875 10.6875H88.5454V9.6619H86.3538V16.8549Z" fill="#2F234F"/>
<path id="Vector_10" fill-rule="evenodd" clip-rule="evenodd" d="M5.06586 2.27794C4.2284 2.86352 3.47112 3.55586 2.81372 4.33523C5.50014 4.08582 8.91314 4.49307 12.8756 6.47432C17.107 8.58995 20.5143 8.66148 22.8856 8.20408C22.6704 7.55262 22.3995 6.92651 22.0787 6.33131C19.3641 6.61762 15.8841 6.23865 11.8285 4.21089C9.25312 2.9232 6.98295 2.39276 5.06586 2.27794ZM20.493 4.0743C18.3493 1.67919 15.234 0.171875 11.7667 0.171875C10.7484 0.171875 9.76046 0.301889 8.8186 0.546205C10.0942 0.894266 11.4494 1.40348 12.8756 2.11662C15.8449 3.60126 18.4085 4.07928 20.493 4.0743ZM23.3926 10.4907C20.5278 11.0564 16.5718 10.9403 11.8285 8.56858C7.394 6.35133 3.86452 6.37926 1.48411 6.90825C1.36124 6.93553 1.24126 6.96421 1.12419 6.99407C0.812531 7.67186 0.563758 8.3846 0.385262 9.12474C0.575906 9.07381 0.772907 9.0254 0.976164 8.98021C3.86401 8.33848 7.9443 8.36634 12.8756 10.832C17.3102 13.0493 20.8396 13.0213 23.2201 12.4923C23.3016 12.4743 23.382 12.4555 23.461 12.4362C23.4697 12.2516 23.474 12.0659 23.474 11.8792C23.474 11.4094 23.4464 10.9461 23.3926 10.4907ZM23.0788 14.9069C20.2418 15.4028 16.401 15.2125 11.8285 12.9263C7.394 10.709 3.86452 10.737 1.48411 11.2659C0.955729 11.3833 0.480405 11.5263 0.0611023 11.6773C0.0599591 11.7444 0.0593872 11.8117 0.0593872 11.8792C0.0593872 18.345 5.30092 23.5865 11.7667 23.5865C17.1855 23.5865 21.7444 19.9051 23.0788 14.9069Z" fill="#7F57F1"/>
</g>
<defs>
<clipPath id="clip0_177_1276">
<rect width="97.7561" height="24" fill="white"/>
</clipPath>
</defs>
</svg>
