<svg width="101" height="24" viewBox="0 0 101 24" fill="none" xmlns="http://www.w3.org/2000/svg">
<g id="Logo" clip-path="url(#clip0_177_1249)">
<path id="Vector" d="M30.6258 17.165H37.6221V15.0577H33.1125V7.12012H30.6258V17.165Z" fill="#2F234F"/>
<path id="Vector_2" d="M41.7672 15.7597C40.7697 15.7597 40.2499 14.8887 40.2499 13.5821C40.2499 12.2756 40.7697 11.3905 41.7672 11.3905C42.7646 11.3905 43.2985 12.2756 43.2985 13.5821C43.2985 14.8887 42.7646 15.7597 41.7672 15.7597ZM41.7812 17.3893C44.0993 17.3893 45.6165 15.7456 45.6165 13.5821C45.6165 11.4186 44.0993 9.7749 41.7812 9.7749C39.4772 9.7749 37.9319 11.4186 37.9319 13.5821C37.9319 15.7456 39.4772 17.3893 41.7812 17.3893Z" fill="#2F234F"/>
<path id="Vector_3" d="M49.6289 19.6516C50.6966 19.6516 51.6378 19.4127 52.27 18.8508C52.846 18.331 53.2253 17.5443 53.2253 16.4625V9.97196H51.0337V10.7446H51.0056C50.5842 10.1405 49.9379 9.76123 48.9826 9.76123C47.1984 9.76123 45.9621 11.2504 45.9621 13.3577C45.9621 15.5634 47.4653 16.7716 49.081 16.7716C49.952 16.7716 50.4999 16.4204 50.9213 15.9427H50.9775V16.6592C50.9775 17.5302 50.5701 18.036 49.6008 18.036C48.8421 18.036 48.4628 17.7128 48.3364 17.3335H46.1167C46.3414 18.8367 47.648 19.6516 49.6289 19.6516ZM49.6148 15.0717C48.7578 15.0717 48.1959 14.3692 48.1959 13.2875C48.1959 12.1917 48.7578 11.4892 49.6148 11.4892C50.5701 11.4892 51.0759 12.3041 51.0759 13.2734C51.0759 14.2849 50.6123 15.0717 49.6148 15.0717Z" fill="#2F234F"/>
<path id="Vector_4" d="M57.7317 15.7597C56.7343 15.7597 56.2145 14.8887 56.2145 13.5821C56.2145 12.2756 56.7343 11.3905 57.7317 11.3905C58.7292 11.3905 59.2628 12.2756 59.2628 13.5821C59.2628 14.8887 58.7292 15.7597 57.7317 15.7597ZM57.7458 17.3893C60.0636 17.3893 61.5809 15.7456 61.5809 13.5821C61.5809 11.4186 60.0636 9.7749 57.7458 9.7749C55.4418 9.7749 53.8964 11.4186 53.8964 13.5821C53.8964 15.7456 55.4418 17.3893 57.7458 17.3893Z" fill="#2F234F"/>
<path id="Vector_5" d="M62.2499 17.165H64.5399V9.97202H62.2499V17.165ZM62.2499 8.97456H64.5399V7.12012H62.2499V8.97456Z" fill="#2F234F"/>
<path id="Vector_6" d="M65.5333 19.5392H67.8232V16.4204H67.8513C68.3009 17.0245 68.9612 17.3897 69.8884 17.3897C71.7709 17.3897 73.0213 15.9005 73.0213 13.5684C73.0213 11.4049 71.8552 9.76123 69.9446 9.76123C68.9612 9.76123 68.2587 10.1967 67.767 10.843H67.7249V9.97196H65.5333V19.5392ZM69.2983 15.6196C68.3149 15.6196 67.753 14.8188 67.753 13.6527C67.753 12.4867 68.2587 11.6016 69.2562 11.6016C70.2396 11.6016 70.7032 12.4165 70.7032 13.6527C70.7032 14.875 70.1694 15.6196 69.2983 15.6196Z" fill="#2F234F"/>
<path id="Vector_7" d="M76.7494 17.3897C78.632 17.3897 80.0228 16.5749 80.0228 15.0014C80.0228 13.161 78.5336 12.8379 77.2693 12.6272C76.3561 12.4586 75.5412 12.3884 75.5412 11.8826C75.5412 11.433 75.9768 11.2223 76.5387 11.2223C77.1709 11.2223 77.6064 11.419 77.6907 12.0652H79.798C79.6856 10.6463 78.5898 9.76123 76.5528 9.76123C74.8529 9.76123 73.448 10.548 73.448 12.0652C73.448 13.7511 74.7826 14.0883 76.033 14.299C76.9883 14.4676 77.8593 14.5378 77.8593 15.1841C77.8593 15.6477 77.4238 15.9005 76.7354 15.9005C75.9768 15.9005 75.4991 15.5493 75.4148 14.8328H73.2513C73.3215 16.4204 74.6421 17.3897 76.7494 17.3897Z" fill="#2F234F"/>
<path id="Vector_8" d="M83.1335 17.3754C84.1309 17.3754 84.7631 16.982 85.2829 16.2796H85.3251V17.1647H87.5167V9.97168H85.2267V13.9896C85.2267 14.8466 84.7491 15.4367 83.9623 15.4367C83.2318 15.4367 82.8806 15.0011 82.8806 14.2144V9.97168H80.6047V14.6921C80.6047 16.2936 81.4757 17.3754 83.1335 17.3754Z" fill="#2F234F"/>
<path id="Vector_9" d="M88.513 17.1649H90.8029V13.1329C90.8029 12.276 91.2244 11.6719 91.9409 11.6719C92.6292 11.6719 92.9524 12.1214 92.9524 12.8941V17.1649H95.2423V13.1329C95.2423 12.276 95.6497 11.6719 96.3803 11.6719C97.0687 11.6719 97.3918 12.1214 97.3918 12.8941V17.1649H99.6817V12.4867C99.6817 10.8711 98.8669 9.76123 97.2373 9.76123C96.31 9.76123 95.5373 10.1546 94.9754 11.0256H94.9473C94.582 10.2529 93.8655 9.76123 92.9243 9.76123C91.8847 9.76123 91.1963 10.2529 90.7467 10.9975H90.7046V9.97196H88.513V17.1649Z" fill="#2F234F"/>
<path id="Vector_10" fill-rule="evenodd" clip-rule="evenodd" d="M12.3764 23.6041C18.8422 23.6041 24.0837 18.3625 24.0837 11.8967C24.0837 5.43099 18.8422 0.189453 12.3764 0.189453C5.91065 0.189453 0.669113 5.43099 0.669113 11.8967C0.669113 18.3625 5.91065 23.6041 12.3764 23.6041ZM14.1834 9.23485C15.1814 8.23686 15.1814 6.61885 14.1834 5.62086C13.1854 4.62288 11.5674 4.62288 10.5694 5.62086C9.57151 6.61885 9.57151 8.23686 10.5694 9.23485L12.3764 11.0418L14.1834 9.23485ZM15.0384 13.7038C16.0363 14.7018 17.6544 14.7018 18.6523 13.7038C19.6503 12.7058 19.6503 11.0878 18.6523 10.0898C17.6544 9.09185 16.0363 9.09185 15.0384 10.0898L13.2314 11.8968L15.0384 13.7038ZM14.1834 18.1727C15.1814 17.1747 15.1814 15.5567 14.1834 14.5587L12.3764 12.7517L10.5694 14.5587C9.57151 15.5567 9.57151 17.1747 10.5694 18.1727C11.5674 19.1707 13.1854 19.1707 14.1834 18.1727ZM6.10051 13.7038C5.10255 12.7058 5.10255 11.0878 6.10051 10.0898C7.09851 9.09185 8.71652 9.09185 9.71451 10.0898L11.5215 11.8968L9.71451 13.7038C8.71652 14.7018 7.09851 14.7018 6.10051 13.7038Z" fill="#7F57F1"/>
</g>
<defs>
<clipPath id="clip0_177_1249">
<rect width="99.5122" height="24" fill="white" transform="translate(0.609741)"/>
</clipPath>
</defs>
</svg>
