<svg width="100" height="24" viewBox="0 0 100 24" fill="none" xmlns="http://www.w3.org/2000/svg">
<g id="Logo" clip-path="url(#clip0_177_1238)">
<path id="Vector" d="M30.4547 16.4711H37.4509V14.3638H32.9413V6.42627H30.4547V16.4711Z" fill="#340E0E"/>
<path id="Vector_2" d="M41.596 15.0663C40.5985 15.0663 40.0787 14.1953 40.0787 12.8888C40.0787 11.5822 40.5985 10.6972 41.596 10.6972C42.5935 10.6972 43.1273 11.5822 43.1273 12.8888C43.1273 14.1953 42.5935 15.0663 41.596 15.0663ZM41.61 16.696C43.9281 16.696 45.4454 15.0523 45.4454 12.8888C45.4454 10.7253 43.9281 9.08154 41.61 9.08154C39.306 9.08154 37.7607 10.7253 37.7607 12.8888C37.7607 15.0523 39.306 16.696 41.61 16.696Z" fill="#340E0E"/>
<path id="Vector_3" d="M49.4577 18.9577C50.5255 18.9577 51.4667 18.7189 52.0989 18.1569C52.6749 17.6371 53.0542 16.8504 53.0542 15.7687V9.27811H50.8626V10.0508H50.8345C50.4131 9.4467 49.7668 9.06738 48.8115 9.06738C47.0273 9.06738 45.791 10.5566 45.791 12.6639C45.791 14.8695 47.2942 16.0777 48.9098 16.0777C49.7809 16.0777 50.3288 15.7265 50.7502 15.2488H50.8064V15.9653C50.8064 16.8364 50.399 17.3421 49.4297 17.3421C48.671 17.3421 48.2917 17.019 48.1653 16.6397H45.9456C46.1703 18.1429 47.4769 18.9577 49.4577 18.9577ZM49.4437 14.3778C48.5867 14.3778 48.0248 13.6754 48.0248 12.5936C48.0248 11.4978 48.5867 10.7954 49.4437 10.7954C50.399 10.7954 50.9048 11.6102 50.9048 12.5796C50.9048 13.5911 50.4412 14.3778 49.4437 14.3778Z" fill="#340E0E"/>
<path id="Vector_4" d="M57.5606 15.0663C56.5631 15.0663 56.0433 14.1953 56.0433 12.8888C56.0433 11.5822 56.5631 10.6972 57.5606 10.6972C58.558 10.6972 59.0919 11.5822 59.0919 12.8888C59.0919 14.1953 58.558 15.0663 57.5606 15.0663ZM57.5746 16.696C59.8927 16.696 61.4099 15.0523 61.4099 12.8888C61.4099 10.7253 59.8927 9.08154 57.5746 9.08154C55.2706 9.08154 53.7253 10.7253 53.7253 12.8888C53.7253 15.0523 55.2706 16.696 57.5746 16.696Z" fill="#340E0E"/>
<path id="Vector_5" d="M62.0784 16.4711H64.3683V9.27817H62.0784V16.4711ZM62.0784 8.28071H64.3683V6.42627H62.0784V8.28071Z" fill="#340E0E"/>
<path id="Vector_6" d="M65.3623 18.8453H67.6523V15.7265H67.6804C68.1299 16.3306 68.7902 16.6959 69.7174 16.6959C71.6 16.6959 72.8503 15.2067 72.8503 12.8746C72.8503 10.7111 71.6843 9.06738 69.7736 9.06738C68.7902 9.06738 68.0878 9.50289 67.5961 10.1491H67.5539V9.27811H65.3623V18.8453ZM69.1274 14.9257C68.144 14.9257 67.582 14.1249 67.582 12.9589C67.582 11.7928 68.0878 10.9078 69.0852 10.9078C70.0686 10.9078 70.5323 11.7226 70.5323 12.9589C70.5323 14.1811 69.9984 14.9257 69.1274 14.9257Z" fill="#340E0E"/>
<path id="Vector_7" d="M76.5785 16.6959C78.461 16.6959 79.8519 15.881 79.8519 14.3076C79.8519 12.4672 78.3627 12.1441 77.0983 11.9333C76.1851 11.7647 75.3703 11.6945 75.3703 11.1887C75.3703 10.7392 75.8058 10.5285 76.3678 10.5285C77 10.5285 77.4355 10.7251 77.5198 11.3714H79.6271C79.5147 9.95246 78.4189 9.06738 76.3818 9.06738C74.6819 9.06738 73.277 9.85411 73.277 11.3714C73.277 13.0572 74.6117 13.3944 75.862 13.6051C76.8173 13.7737 77.6883 13.844 77.6883 14.4902C77.6883 14.9538 77.2528 15.2067 76.5644 15.2067C75.8058 15.2067 75.3282 14.8555 75.2439 14.139H73.0804C73.1506 15.7265 74.4712 16.6959 76.5785 16.6959Z" fill="#340E0E"/>
<path id="Vector_8" d="M82.9625 16.6815C83.96 16.6815 84.5922 16.2882 85.112 15.5857H85.1541V16.4708H87.3457V9.27783H85.0558V13.2958C85.0558 14.1528 84.5781 14.7428 83.7914 14.7428C83.0608 14.7428 82.7096 14.3073 82.7096 13.5206V9.27783H80.4337V13.9982C80.4337 15.5998 81.3047 16.6815 82.9625 16.6815Z" fill="#340E0E"/>
<path id="Vector_9" d="M88.3414 16.4711H90.6314V12.4391C90.6314 11.5821 91.0528 10.978 91.7693 10.978C92.4577 10.978 92.7808 11.4276 92.7808 12.2003V16.4711H95.0708V12.4391C95.0708 11.5821 95.4782 10.978 96.2087 10.978C96.8971 10.978 97.2203 11.4276 97.2203 12.2003V16.4711H99.5102V11.7928C99.5102 10.1772 98.6954 9.06738 97.0657 9.06738C96.1385 9.06738 95.3658 9.46075 94.8039 10.3318H94.7758C94.4105 9.55909 93.694 9.06738 92.7527 9.06738C91.7131 9.06738 91.0247 9.55909 90.5752 10.3037H90.533V9.27811H88.3414V16.4711Z" fill="#340E0E"/>
<path id="Vector_10" fill-rule="evenodd" clip-rule="evenodd" d="M12.2053 23.4952C18.6711 23.4952 23.9126 18.2536 23.9126 11.7879C23.9126 5.32211 18.6711 0.0805664 12.2053 0.0805664C5.73952 0.0805664 0.497986 5.32211 0.497986 11.7879C0.497986 18.2536 5.73952 23.4952 12.2053 23.4952ZM15.8576 5.53433C16.0354 4.90284 15.4225 4.52942 14.8629 4.92816L7.05005 10.494C6.44309 10.9264 6.53856 11.7879 7.19347 11.7879H9.2508V11.7719H13.2604L9.99333 12.9247L8.55304 18.0414C8.37526 18.6729 8.98803 19.0463 9.54775 18.6476L17.3606 13.0818C17.9675 12.6494 17.872 11.7879 17.2172 11.7879H14.0973L15.8576 5.53433Z" fill="#F15757"/>
</g>
<defs>
<clipPath id="clip0_177_1238">
<rect width="99.5122" height="24" fill="white" transform="translate(0.0975342)"/>
</clipPath>
</defs>
</svg>
