<svg width="100" height="24" viewBox="0 0 100 24" fill="none" xmlns="http://www.w3.org/2000/svg">
<g id="Logo" clip-path="url(#clip0_177_1260)">
<path id="Vector" d="M29.6015 16.9477H36.5978V14.8404H32.0881V6.90283H29.6015V16.9477Z" fill="#3C2B1F"/>
<path id="Vector_2" d="M40.7428 15.5429C39.7454 15.5429 39.2256 14.6719 39.2256 13.3653C39.2256 12.0588 39.7454 11.1737 40.7428 11.1737C41.7403 11.1737 42.2742 12.0588 42.2742 13.3653C42.2742 14.6719 41.7403 15.5429 40.7428 15.5429ZM40.7569 17.1725C43.0749 17.1725 44.5922 15.5288 44.5922 13.3653C44.5922 11.2018 43.0749 9.55811 40.7569 9.55811C38.4529 9.55811 36.9075 11.2018 36.9075 13.3653C36.9075 15.5288 38.4529 17.1725 40.7569 17.1725Z" fill="#3C2B1F"/>
<path id="Vector_3" d="M48.6045 19.4343C49.6722 19.4343 50.6135 19.1955 51.2457 18.6335C51.8217 18.1137 52.201 17.327 52.201 16.2452V9.75468H50.0094V10.5274H49.9813C49.5599 9.92326 48.9136 9.54395 47.9583 9.54395C46.1741 9.54395 44.9378 11.0331 44.9378 13.1404C44.9378 15.3461 46.441 16.5543 48.0566 16.5543C48.9277 16.5543 49.4756 16.2031 49.897 15.7254H49.9532V16.4419C49.9532 17.3129 49.5458 17.8187 48.5764 17.8187C47.8178 17.8187 47.4385 17.4956 47.312 17.1162H45.0923C45.3171 18.6195 46.6237 19.4343 48.6045 19.4343ZM48.5905 14.8544C47.7335 14.8544 47.1716 14.1519 47.1716 13.0702C47.1716 11.9744 47.7335 11.2719 48.5905 11.2719C49.5458 11.2719 50.0516 12.0868 50.0516 13.0561C50.0516 14.0677 49.588 14.8544 48.5905 14.8544Z" fill="#3C2B1F"/>
<path id="Vector_4" d="M56.7074 15.5429C55.71 15.5429 55.1901 14.6719 55.1901 13.3653C55.1901 12.0588 55.71 11.1737 56.7074 11.1737C57.7049 11.1737 58.2387 12.0588 58.2387 13.3653C58.2387 14.6719 57.7049 15.5429 56.7074 15.5429ZM56.7215 17.1725C59.0395 17.1725 60.5565 15.5288 60.5565 13.3653C60.5565 11.2018 59.0395 9.55811 56.7215 9.55811C54.4175 9.55811 52.8721 11.2018 52.8721 13.3653C52.8721 15.5288 54.4175 17.1725 56.7215 17.1725Z" fill="#3C2B1F"/>
<path id="Vector_5" d="M61.2256 16.9477H63.5155V9.75473H61.2256V16.9477ZM61.2256 8.75727H63.5155V6.90283H61.2256V8.75727Z" fill="#3C2B1F"/>
<path id="Vector_6" d="M64.5089 19.3219H66.7988V16.2031H66.8269C67.2765 16.8072 67.9368 17.1724 68.864 17.1724C70.7465 17.1724 71.9969 15.6833 71.9969 13.3512C71.9969 11.1877 70.8308 9.54395 68.9202 9.54395C67.9368 9.54395 67.2343 9.97946 66.7426 10.6257H66.7005V9.75468H64.5089V19.3219ZM68.274 15.4023C67.2905 15.4023 66.7286 14.6015 66.7286 13.4355C66.7286 12.2694 67.2343 11.3843 68.2318 11.3843C69.2152 11.3843 69.6788 12.1992 69.6788 13.4355C69.6788 14.6577 69.145 15.4023 68.274 15.4023Z" fill="#3C2B1F"/>
<path id="Vector_7" d="M75.7251 17.1724C77.6076 17.1724 78.9984 16.3576 78.9984 14.7841C78.9984 12.9437 77.5093 12.6206 76.2449 12.4099C75.3317 12.2413 74.5169 12.1711 74.5169 11.6653C74.5169 11.2158 74.9524 11.005 75.5143 11.005C76.1465 11.005 76.582 11.2017 76.6663 11.8479H78.7737C78.6613 10.429 77.5655 9.54395 75.5284 9.54395C73.8285 9.54395 72.4236 10.3307 72.4236 11.8479C72.4236 13.5338 73.7582 13.871 75.0086 14.0817C75.9639 14.2503 76.8349 14.3205 76.8349 14.9668C76.8349 15.4304 76.3994 15.6833 75.711 15.6833C74.9524 15.6833 74.4747 15.332 74.3904 14.6156H72.2269C72.2972 16.2031 73.6178 17.1724 75.7251 17.1724Z" fill="#3C2B1F"/>
<path id="Vector_8" d="M82.1091 17.1586C83.1065 17.1586 83.7387 16.7652 84.2585 16.0628H84.3007V16.9479H86.4923V9.75488H84.2023V13.7728C84.2023 14.6298 83.7247 15.2199 82.9379 15.2199C82.2074 15.2199 81.8562 14.7843 81.8562 13.9976V9.75488H79.5803V14.4753C79.5803 16.0768 80.4513 17.1586 82.1091 17.1586Z" fill="#3C2B1F"/>
<path id="Vector_9" d="M87.4886 16.9477H89.7785V12.9157C89.7785 12.0587 90.2 11.4546 90.9165 11.4546C91.6049 11.4546 91.928 11.9041 91.928 12.6768V16.9477H94.218V12.9157C94.218 12.0587 94.6254 11.4546 95.3559 11.4546C96.0443 11.4546 96.3674 11.9041 96.3674 12.6768V16.9477H98.6574V12.2694C98.6574 10.6538 97.8425 9.54395 96.2129 9.54395C95.2857 9.54395 94.513 9.93731 93.951 10.8083H93.9229C93.5577 10.0357 92.8412 9.54395 91.8999 9.54395C90.8603 9.54395 90.1719 10.0357 89.7223 10.7802H89.6802V9.75468H87.4886V16.9477Z" fill="#3C2B1F"/>
<path id="Vector_10" d="M15.6302 1.15742L13.328 0.540527L11.3878 7.78125L9.63623 1.24428L7.33392 1.86117L9.22641 8.92388L4.51267 4.21017L2.82729 5.89555L7.99767 11.066L1.55879 9.34066L0.941895 11.6429L7.97718 13.528C7.89664 13.1806 7.85402 12.8186 7.85402 12.4467C7.85402 9.81393 9.98827 7.67969 12.621 7.67969C15.2537 7.67969 17.388 9.81393 17.388 12.4467C17.388 12.8162 17.3459 13.176 17.2664 13.5213L23.6601 15.2345L24.277 12.9323L17.2137 11.0397L23.653 9.31427L23.0361 7.01202L15.9732 8.90451L20.6869 4.19082L19.0015 2.50544L13.9028 7.60412L15.6302 1.15742Z" fill="#F97316"/>
<path id="Vector_11" d="M17.2601 13.5479C17.0627 14.3823 16.646 15.132 16.0742 15.7327L20.7062 20.3647L22.3916 18.6793L17.2601 13.5479Z" fill="#F97316"/>
<path id="Vector_12" d="M16.0274 15.7812C15.4487 16.3723 14.7174 16.8134 13.8973 17.0407L15.5828 23.331L17.885 22.7141L16.0274 15.7812Z" fill="#F97316"/>
<path id="Vector_13" d="M13.8113 17.0637C13.4308 17.1615 13.032 17.2134 12.621 17.2134C12.1807 17.2134 11.7543 17.1537 11.3495 17.042L9.66251 23.3381L11.9647 23.9549L13.8113 17.0637Z" fill="#F97316"/>
<path id="Vector_14" d="M11.2682 17.0188C10.4606 16.7802 9.74228 16.3335 9.17542 15.7407L4.53201 20.3841L6.21739 22.0695L11.2682 17.0188Z" fill="#F97316"/>
<path id="Vector_15" d="M9.13666 15.6998C8.57951 15.1033 8.17368 14.3636 7.98051 13.542L1.56586 15.2608L2.18274 17.563L9.13666 15.6998Z" fill="#F97316"/>
</g>
<defs>
<clipPath id="clip0_177_1260">
<rect width="98.3415" height="24" fill="white" transform="translate(0.756104)"/>
</clipPath>
</defs>
</svg>
