<svg xmlns="http://www.w3.org/2000/svg" width="56" height="56" viewBox="0 0 56 56" fill="none">
  <circle cx="28" cy="28" r="27.5" stroke="#807F01" stroke-dasharray="4 4"/>
  <path d="M27.875 16C23.742 16 20.4345 19.2531 20.0806 23.3331H19.6161C16.5261 23.3331 14 25.882 14 28.9997C14 32.1174 16.5261 34.6662 19.6161 34.6662H19.7154L17.4442 38.4851C17.3773 38.5978 17.333 38.7227 17.3139 38.8526C17.2948 38.9826 17.3012 39.115 17.3329 39.2425C17.3645 39.3699 17.4207 39.4898 17.4983 39.5953C17.5758 39.7008 17.6732 39.7899 17.7849 39.8575C17.8966 39.925 18.0204 39.9697 18.1492 39.989C18.2779 40.0082 18.4092 40.0017 18.5355 39.9698C18.6618 39.9379 18.7807 39.8812 18.8853 39.8029C18.9898 39.7247 19.0781 39.6264 19.1451 39.5137L22.0266 34.6662H26.9833L24.7121 38.4851C24.6451 38.5978 24.6008 38.7227 24.5817 38.8526C24.5625 38.9826 24.569 39.1151 24.6006 39.2426C24.6322 39.37 24.6884 39.4899 24.766 39.5955C24.8435 39.701 24.9409 39.7901 25.0526 39.8577C25.1643 39.9252 25.2881 39.9699 25.4169 39.9892C25.5458 40.0085 25.6771 40.0019 25.8034 39.97C25.9297 39.9381 26.0486 39.8813 26.1531 39.803C26.2577 39.7247 26.346 39.6264 26.4129 39.5137L29.2945 34.6662H34.2512L31.9799 38.4851C31.913 38.5978 31.8686 38.7227 31.8495 38.8526C31.8304 38.9826 31.8368 39.1151 31.8684 39.2426C31.9001 39.37 31.9563 39.4899 32.0338 39.5955C32.1114 39.701 32.2088 39.7901 32.3205 39.8577C32.4322 39.9252 32.556 39.9699 32.6848 39.9892C32.8136 40.0085 32.9449 40.0019 33.0712 39.97C33.1976 39.9381 33.3164 39.8813 33.421 39.803C33.5256 39.7247 33.6138 39.6264 33.6808 39.5137L36.5766 34.6427C39.4607 34.4124 41.75 31.9665 41.75 28.9997C41.75 25.882 39.2239 23.3331 36.1339 23.3331H35.6694C35.3155 19.2531 32.008 16 27.875 16ZM27.875 17.9999C31.1709 17.9999 33.8214 20.6743 33.8214 23.9998V24.3331C33.8215 24.5983 33.9259 24.8527 34.1117 25.0402C34.2976 25.2277 34.5497 25.3331 34.8125 25.3331H36.1339C38.1526 25.3331 39.7679 26.9628 39.7679 28.9997C39.7679 31.0308 38.1615 32.6558 36.1507 32.6649C36.1122 32.6592 36.0734 32.6557 36.0346 32.6545C35.9758 32.6532 35.9171 32.6571 35.8591 32.6662H28.8867C28.847 32.6599 28.8069 32.656 28.7667 32.6545C28.708 32.6532 28.6492 32.6571 28.5912 32.6662H21.6189C21.5791 32.6599 21.5391 32.656 21.4988 32.6545C21.4401 32.6532 21.3814 32.6571 21.3233 32.6662H19.6161C17.5974 32.6662 15.9821 31.0365 15.9821 28.9997C15.9821 26.9628 17.5974 25.3331 19.6161 25.3331H20.9375C21.2003 25.3331 21.4524 25.2277 21.6383 25.0402C21.8241 24.8527 21.9285 24.5983 21.9286 24.3331V23.9998C21.9286 20.6743 24.5791 17.9999 27.875 17.9999Z" fill="#807F01"/>
</svg>