<svg xmlns="http://www.w3.org/2000/svg" width="56" height="56" viewBox="0 0 56 56" fill="none">
  <circle cx="28" cy="28" r="27.5" stroke="#807F01" stroke-dasharray="4 4"/>
  <path d="M27.4286 16C21.1269 16 16 21.1269 16 27.4286C16 33.7303 21.1269 38.8571 27.4286 38.8571C28.0571 38.8571 28.6701 38.7925 29.2712 38.6942C28.9215 38.1993 28.6894 37.6499 28.6071 37.0636C28.2197 37.111 27.828 37.1429 27.4286 37.1429C22.072 37.1429 17.7143 32.7851 17.7143 27.4286C17.7143 22.072 22.072 17.7143 27.4286 17.7143C31.9543 17.7143 35.7555 20.8302 36.8292 25.0257C37.6704 25.4302 38.3692 26.0815 38.8292 26.8895C38.5452 20.8387 33.5486 16 27.4286 16ZM27.7009 20.5592C27.4738 20.5627 27.2573 20.6563 27.0991 20.8193C26.9409 20.9823 26.8539 21.2014 26.8571 21.4286V27.3594L24.2511 29.9654C24.1689 30.0444 24.1032 30.139 24.0579 30.2437C24.0127 30.3483 23.9888 30.461 23.9876 30.575C23.9865 30.6891 24.0081 30.8022 24.0512 30.9078C24.0943 31.0133 24.158 31.1093 24.2387 31.1899C24.3193 31.2705 24.4152 31.3343 24.5208 31.3774C24.6264 31.4205 24.7395 31.4421 24.8535 31.4409C24.9676 31.4398 25.0802 31.4159 25.1849 31.3706C25.2896 31.3254 25.3842 31.2597 25.4632 31.1775L28.3203 28.3203C28.4811 28.1596 28.5714 27.9416 28.5714 27.7143V21.4286C28.5731 21.3138 28.5517 21.2 28.5085 21.0937C28.4653 20.9874 28.4012 20.8908 28.3201 20.8097C28.2389 20.7287 28.1422 20.6647 28.0359 20.6217C27.9295 20.5786 27.8156 20.5574 27.7009 20.5592ZM34.8571 25.7143C33.7857 25.7143 32.8736 26.1469 32.2879 26.8058C31.7023 27.4647 31.4286 28.3095 31.4286 29.1429C31.4286 29.9762 31.7023 30.821 32.2879 31.4799C32.8736 32.1388 33.7857 32.5714 34.8571 32.5714C35.9286 32.5714 36.8407 32.1388 37.4263 31.4799C38.012 30.821 38.2857 29.9762 38.2857 29.1429C38.2857 28.3095 38.012 27.4647 37.4263 26.8058C36.8407 26.1469 35.9286 25.7143 34.8571 25.7143ZM34.8571 27.4286C35.5 27.4286 35.8736 27.6388 36.1451 27.9442C36.4166 28.2496 36.5714 28.6905 36.5714 29.1429C36.5714 29.5952 36.4166 30.0361 36.1451 30.3415C35.8736 30.6469 35.5 30.8571 34.8571 30.8571C34.2143 30.8571 33.8407 30.6469 33.5692 30.3415C33.2977 30.0361 33.1429 29.5952 33.1429 29.1429C33.1429 28.6905 33.2977 28.2496 33.5692 27.9442C33.8407 27.6388 34.2143 27.4286 34.8571 27.4286ZM31.7143 33.7143C30.62 33.7143 29.7143 34.62 29.7143 35.7143V36.5714C29.7143 37.6675 30.4457 38.5607 31.3862 39.125C32.3267 39.6893 33.5347 40 34.8571 40C36.1796 40 37.3876 39.6893 38.3281 39.125C39.2686 38.5607 40 37.6675 40 36.5714V35.7143C40 34.62 39.0943 33.7143 38 33.7143H31.7143ZM31.7143 35.4286H38C38.1686 35.4286 38.2857 35.5457 38.2857 35.7143V36.5714C38.2857 36.8953 38.0571 37.2887 37.4464 37.6551C36.8358 38.0215 35.9016 38.2857 34.8571 38.2857C33.8127 38.2857 32.8785 38.0215 32.2679 37.6551C31.6572 37.2887 31.4286 36.8953 31.4286 36.5714V35.7143C31.4286 35.5457 31.5457 35.4286 31.7143 35.4286Z" fill="#807F01"/>
</svg>